<?xml version="1.0" standalone="no"?>
<!DOCTYPE svg PUBLIC "-//W3C//DTD SVG 20010904//EN"
 "http://www.w3.org/TR/2001/REC-SVG-20010904/DTD/svg10.dtd">
<svg version="1.0" xmlns="http://www.w3.org/2000/svg"
 width="1010.000000pt" height="1010.000000pt" viewBox="0 0 1010.000000 1010.000000"
 preserveAspectRatio="xMidYMid meet">
<metadata>
Created by potrace 1.11, written by Peter Selinger 2001-2013
</metadata>
<g transform="translate(0.000000,1010.000000) scale(0.100000,-0.100000)"
fill="#000000" stroke="none">
<path d="M235 10013 c5 -53 12 -117 20 -173 2 -14 6 -50 10 -80 3 -30 8 -67
11 -82 3 -15 7 -42 9 -60 3 -18 7 -44 10 -58 2 -14 7 -41 10 -60 3 -19 8 -48
11 -65 13 -79 68 -341 91 -430 13 -55 27 -109 29 -119 2 -10 20 -76 39 -145
181 -637 436 -1212 823 -1861 186 -311 559 -863 764 -1132 7 -9 20 -26 28 -38
27 -40 410 -550 570 -760 86 -113 160 -211 164 -219 9 -14 -196 139 -305 228
-31 25 -71 58 -90 73 -19 14 -45 36 -59 48 -14 12 -42 36 -64 53 -21 18 -43
37 -50 42 -6 6 -49 43 -96 84 -215 187 -607 567 -790 766 -89 98 -260 293
-340 390 -41 50 -77 92 -81 95 -6 6 -274 352 -302 390 -124 174 -180 254 -287
415 -70 105 -148 226 -175 270 -27 44 -54 87 -61 95 -6 8 -23 37 -38 65 -35
67 -35 61 20 -275 8 -52 17 -107 20 -122 2 -16 6 -40 8 -55 3 -16 7 -46 11
-68 3 -23 7 -50 9 -60 2 -11 6 -38 10 -60 3 -22 31 -190 61 -374 30 -183 57
-347 59 -365 3 -17 12 -67 20 -111 8 -44 18 -96 21 -115 5 -29 27 -149 41
-225 3 -17 56 -291 70 -360 2 -11 6 -31 9 -45 3 -14 10 -45 15 -70 17 -89 81
-376 97 -435 8 -33 17 -71 20 -84 2 -13 26 -110 54 -215 27 -105 51 -198 53
-206 22 -93 192 -640 216 -695 4 -11 34 -90 65 -175 31 -85 63 -168 70 -185 8
-16 26 -59 40 -95 73 -180 242 -531 340 -705 89 -159 319 -523 345 -545 3 -3
23 -30 45 -60 40 -56 172 -225 211 -270 360 -417 685 -705 1119 -990 185 -121
165 -109 320 -198 220 -127 579 -300 795 -382 257 -98 488 -180 510 -180 6 0
-4 15 -22 33 -18 19 -62 67 -98 107 -36 41 -81 92 -101 115 -258 288 -518 618
-627 797 -129 210 -169 349 -122 425 54 89 212 102 510 42 58 -12 112 -23 122
-24 26 -5 330 -85 363 -96 17 -5 84 -25 150 -44 66 -18 244 -70 395 -114 341
-100 410 -120 435 -126 11 -2 88 -23 170 -45 83 -23 157 -43 165 -45 210 -51
366 -86 483 -110 26 -5 201 -34 237 -40 14 -2 57 -8 95 -14 263 -42 658 -46
849 -10 459 87 725 331 811 744 44 214 39 557 -11 735 -39 138 -120 270 -223
364 -19 17 -39 36 -45 41 -30 28 -118 87 -177 118 -207 112 -483 193 -889 261
-19 3 -44 8 -55 10 -19 4 -75 11 -154 22 -19 2 -46 6 -60 8 -14 3 -46 7 -71
11 -25 4 -56 8 -70 10 -14 2 -50 7 -80 10 -30 3 -66 7 -80 10 -14 2 -43 7 -65
9 -159 20 -240 31 -295 41 -14 2 -47 7 -75 10 -27 3 -75 10 -105 15 -30 5 -71
12 -90 15 -19 3 -57 10 -85 15 -27 5 -65 12 -83 15 -59 10 -167 34 -292 64
-47 12 -96 24 -109 27 -13 3 -31 9 -40 13 -9 5 -19 9 -24 10 -22 2 -129 37
-218 72 -448 174 -739 430 -890 779 -39 91 -84 235 -95 305 -3 22 -7 42 -9 45
-2 3 -7 37 -10 75 -4 39 -9 84 -11 100 -6 49 -5 294 0 370 8 98 28 259 42 330
2 11 7 36 10 55 44 248 135 553 220 738 19 41 34 75 34 77 0 3 25 51 56 107
249 456 600 791 1066 1016 59 29 110 52 113 52 4 0 21 7 38 15 102 47 402 131
582 161 22 4 48 8 59 10 10 2 44 6 75 9 31 4 67 9 81 12 45 9 523 11 605 3 44
-5 109 -12 145 -15 56 -6 275 -42 364 -60 371 -77 821 -253 1165 -456 139 -81
414 -279 502 -360 8 -8 34 -32 58 -54 l42 -40 -11 30 c-6 17 -38 84 -71 149
-376 750 -937 1278 -1678 1581 -273 112 -613 211 -886 260 -258 45 -364 62
-445 71 -19 2 -57 6 -85 10 -27 4 -61 8 -75 9 -104 8 -193 17 -207 19 -10 2
-67 7 -128 11 -60 4 -126 8 -145 10 -19 2 -102 6 -185 10 -82 4 -184 9 -225
11 -82 3 -353 11 -660 19 -642 16 -792 20 -995 30 -142 7 -275 14 -350 20 -33
2 -98 7 -145 10 -47 4 -99 8 -117 10 -18 3 -63 7 -100 10 -37 3 -79 8 -93 10
-14 2 -54 7 -90 11 -36 3 -72 8 -81 9 -9 2 -40 6 -69 10 -29 4 -62 9 -74 11
-11 2 -38 6 -61 9 -299 42 -730 149 -1010 250 -426 154 -810 371 -1122 634
-40 34 -75 61 -78 61 -3 0 -3 -25 0 -57z"/>
<path d="M6708 6265 c-2 -1 -50 -5 -108 -9 -124 -8 -147 -11 -265 -38 -242
-56 -420 -184 -513 -369 -88 -175 -71 -344 52 -514 93 -129 319 -318 501 -421
11 -6 49 -28 85 -49 195 -113 582 -298 900 -430 63 -26 151 -62 195 -80 44
-19 190 -77 325 -130 135 -54 259 -103 275 -110 17 -7 107 -43 200 -80 94 -36
184 -72 200 -80 17 -7 82 -34 145 -60 104 -42 142 -58 235 -100 487 -216 755
-371 913 -525 31 -30 65 -67 74 -80 l17 -25 2 30 c1 17 3 48 4 70 1 22 5 87 9
145 12 194 17 275 21 355 4 79 13 234 20 350 2 33 6 114 10 180 3 66 8 154 11
195 6 103 14 240 19 330 10 213 16 310 20 355 2 28 1 55 -3 61 -6 9 -171 89
-307 149 -16 7 -64 29 -105 48 -41 19 -116 51 -165 72 -84 34 -104 43 -187 79
-18 8 -69 29 -113 46 -44 17 -93 38 -110 45 -102 45 -533 202 -770 279 -246
80 -673 196 -807 220 -15 2 -63 11 -105 20 -43 8 -98 18 -123 21 -25 4 -52 8
-60 9 -106 17 -179 24 -315 32 -60 3 -125 7 -142 8 -18 2 -34 2 -35 1z"/>
</g>
</svg>
